<svg width="20" height="20" viewBox="0 0 20 20" fill="none" xmlns="http://www.w3.org/2000/svg">
<path d="M8.12507 15C7.08945 15 6.25 15.8395 6.25 16.8749C6.25 17.9105 7.08945 18.75 8.12507 18.75C9.16055 18.75 10 17.9105 10 16.8749C9.99892 15.8399 9.16014 15.0011 8.12507 15Z" fill="white"/>
<path d="M19.9134 5.34828C19.8301 5.24337 19.7006 5.1814 19.5631 5.18042H4.10462L3.78944 3.48912C3.59517 2.44799 2.74387 1.63373 1.65742 1.44964L0.514716 1.25653C0.276495 1.21603 0.0492189 1.36816 0.00680773 1.59652C-0.0354324 1.82472 0.123267 2.04275 0.361488 2.08324L1.50847 2.27635C2.2322 2.3993 2.79876 2.94241 2.92702 3.63601L4.47674 12.0169C4.65972 13.0197 5.56866 13.751 6.63065 13.75H15.8243C16.7902 13.7529 17.6432 13.1469 17.9214 12.2602L19.979 5.72188C20.0223 5.59451 19.9977 5.455 19.9134 5.34828Z" fill="white"/>
<path d="M14.3751 15C13.3395 15 12.5 15.8395 12.5 16.8749C12.5 17.9105 13.3395 18.75 14.3751 18.75C15.4105 18.75 16.25 17.9105 16.25 16.8749C16.2489 15.8399 15.4101 15.0011 14.3751 15Z" fill="white"/>
</svg>
