<svg width="20" height="20" viewBox="0 0 20 20" fill="none" xmlns="http://www.w3.org/2000/svg">
<path d="M18.886 2.08611C18.791 2.00194 18.6564 1.97722 18.5369 2.02196L1.21805 8.51182C1.09368 8.55842 1.00808 8.67196 0.998458 8.80297C0.988839 8.93388 1.05697 9.05853 1.17319 9.12239L5.74543 11.1836C5.85453 11.2434 5.98834 11.2398 6.09397 11.1739L12.9999 8.5C12.9999 8.5 8.19738 12.5372 8.14343 12.5926C8.08948 12.6481 8.01845 12.6991 8.01845 12.832C8.01845 12.9899 8.01827 17.6609 8.01827 17.6609C8.01765 17.7981 8.10113 17.9221 8.22947 17.9744C8.27171 17.9916 8.31598 18 8.35987 18C8.44956 18 8.53769 17.9651 8.60314 17.8996L11.4774 15.0233L14.7556 16.9281C14.8088 16.959 14.8687 16.9747 14.9289 16.9747C14.9733 16.9747 15.0178 16.9662 15.0599 16.9489C15.159 16.9083 15.233 16.824 15.2598 16.7214L18.9891 2.42175C19.0209 2.2996 18.9812 2.17014 18.886 2.08611Z" fill="white"/>
</svg>
