<svg width="24" height="24" viewBox="0 0 24 24" fill="none" xmlns="http://www.w3.org/2000/svg">
<path d="M2.52534 22.5C2.32251 22.5001 2.12422 22.4399 1.95556 22.3273C1.7869 22.2146 1.65545 22.0544 1.57782 21.8671C1.5002 21.6797 1.47989 21.4735 1.51947 21.2745C1.55905 21.0756 1.65674 20.8929 1.80018 20.7495L20.7494 1.80025C20.9417 1.60792 21.2026 1.49988 21.4746 1.49988C21.7465 1.49988 22.0074 1.60792 22.1997 1.80025C22.392 1.99257 22.5001 2.25342 22.5001 2.5254C22.5001 2.79739 22.392 3.05824 22.1997 3.25056L3.25049 22.1998C3.15535 22.2951 3.04231 22.3707 2.91787 22.4222C2.79342 22.4738 2.66003 22.5002 2.52534 22.5Z" fill="#DFDFDF"/>
<path d="M21.4745 22.5C21.3398 22.5002 21.2064 22.4738 21.082 22.4222C20.9575 22.3707 20.8445 22.2951 20.7493 22.1998L1.80013 3.25056C1.6078 3.05824 1.49976 2.79739 1.49976 2.5254C1.49976 2.25342 1.6078 1.99257 1.80013 1.80025C1.99245 1.60792 2.2533 1.49988 2.52528 1.49988C2.79727 1.49988 3.05811 1.60792 3.25044 1.80025L22.1997 20.7495C22.3431 20.8929 22.4408 21.0756 22.4804 21.2745C22.52 21.4735 22.4996 21.6797 22.422 21.8671C22.3444 22.0544 22.2129 22.2146 22.0443 22.3273C21.8756 22.4399 21.6773 22.5001 21.4745 22.5Z" fill="#DFDFDF"/>
</svg>
