<svg width="26" height="26" viewBox="0 0 26 26" fill="none" xmlns="http://www.w3.org/2000/svg">
<rect x="0.5" y="0.5" width="25" height="25" rx="12.5" stroke="#DFDFDF"/>
<g clip-path="url(#clip0_1_1861)">
<path d="M16.649 12.3157H13.684V9.35084C13.684 8.97355 13.3771 8.66663 12.9998 8.66663C12.6225 8.66663 12.3156 8.97355 12.3156 9.35084V12.3157H9.35071C8.97343 12.3157 8.6665 12.6227 8.6665 13C8.6665 13.3772 8.97343 13.6842 9.35071 13.6842H12.3156V16.6491C12.3156 17.0264 12.6225 17.3333 12.9998 17.3333C13.3771 17.3333 13.684 17.0264 13.684 16.6491V13.6842H16.649C17.0262 13.6842 17.3332 13.3772 17.3332 13C17.3332 12.6227 17.0262 12.3157 16.649 12.3157Z" fill="black"/>
</g>
<defs>
<clipPath id="clip0_1_1861">
<rect width="8.66667" height="8.66667" fill="white" transform="translate(8.6665 8.66663)"/>
</clipPath>
</defs>
</svg>
