<svg width="40" height="40" viewBox="0 0 40 40" fill="none" xmlns="http://www.w3.org/2000/svg">
<circle cx="20" cy="20" r="20" fill="#D2DA28"/>
<g clip-path="url(#clip0_2001_33)">
<path d="M27.5951 15.3678C27.0152 14.7269 26.0253 14.678 25.3845 15.258L18.4745 21.5142L14.6423 17.876C14.0153 17.2809 13.0246 17.3068 12.4298 17.9336C11.835 18.5604 11.8607 19.5508 12.4874 20.1459L17.3029 24.7167C17.6057 25.0044 17.9929 25.147 18.3798 25.147C18.5972 25.147 18.8143 25.1004 19.0161 25.0105C19.2501 24.9491 19.4734 24.8322 19.6654 24.6582L27.4851 17.5782C28.1262 16.9982 28.1751 16.0086 27.5951 15.3678Z" fill="#171717"/>
</g>
<defs>
<clipPath id="clip0_2001_33">
<rect width="16" height="16" fill="white" transform="translate(12 12)"/>
</clipPath>
</defs>
</svg>
