<svg xmlns="http://www.w3.org/2000/svg" viewBox="0 0 48 48" width="48" height="48"><g xmlns="http://www.w3.org/2000/svg" transform="matrix(0 1 -1 0 48 -0)"><rect width="48" height="48" rx="24" transform="matrix(-1 0 0 1 48 0)" fill="#7F9C09" /><path d="M27.4513 24.7895L21.0323 30.8546C20.8271 31.0485 20.5007 31.0485 20.2955 30.8546L20.2774 30.8375C20.0636 30.6355 20.0636 30.3015 20.2774 30.0994L26.6742 24.0553L20.1604 17.9006C19.9465 17.6985 19.9465 17.3645 20.1604 17.1625L20.1784 17.1454C20.3836 16.9515 20.71 16.9515 20.9152 17.1454L27.8396 23.688C28.0535 23.8901 28.0535 24.2241 27.8396 24.4262L27.4532 24.7913L27.4513 24.7895Z" fill="white" /></g></svg>