<svg xmlns="http://www.w3.org/2000/svg" viewBox="0 0 48 48" width="48" height="48"><g xmlns="http://www.w3.org/2000/svg" transform="matrix(0 1 -1 0 48 -0)"><rect width="48" height="48" rx="24" transform="matrix(1 0 0 -1 -0.000976562 48)" fill="#7F9C09" /><path d="M20.5478 23.2105L26.9668 17.1454C27.1719 16.9515 27.4983 16.9515 27.7035 17.1454L27.7216 17.1625C27.9354 17.3645 27.9354 17.6985 27.7216 17.9006L21.3248 23.9447L27.8386 30.0994C28.0525 30.3015 28.0525 30.6355 27.8386 30.8375L27.8206 30.8546C27.6154 31.0485 27.289 31.0485 27.0838 30.8546L20.1594 24.312C19.9456 24.1099 19.9456 23.7759 20.1594 23.5738L20.5458 23.2087L20.5478 23.2105Z" fill="white" /></g></svg>