<svg width="56" height="56" viewBox="0 0 56 56" fill="none" xmlns="http://www.w3.org/2000/svg">
<path d="M55.5 26.0001C54.5 24.5001 53.8656 23.2785 53.2681 22.2367L43.1631 4.75033C42 3.00012 41.7267 2.73581 40 0.00012207C37.5 1.50012 36.903 2.0071 35.6373 2.73581L5 21.0001C6 21.0001 5 21.0001 7.49999 21.0001L44.6486 20.9684C46.4341 20.9702 50 20.9684 51 20.9684C51 22.9684 50.9983 25.716 51 27.5C51 27.8095 51 28.5 51 29C52.5 28.0001 55 26.5001 55.5 26.0001ZM34.3477 19.745H21.6143L43.212 7.28275L46.3954 12.7921L34.3477 19.745Z" fill="#7496EE"/>
<path d="M7.50963 54.0002H44.6486C46.1094 53.9986 48 54.0001 50 54.0001C50 51.6143 49.9984 49.9597 50 48.5001V27.5001C49.9984 26.0405 49.9573 23.194 50 22.0001C48.7377 22.0001 45.9607 22.0017 44.5 22.0001H7.5C6.03925 22.0017 4.5 22.0001 2 22.0001C2 23.3093 2.00162 26.2377 2 27.6973V48.4949C2.00162 49.9545 2 50.6144 2 54.0002C5.38448 54.1144 6.04888 53.9986 7.50963 54.0002ZM37.9146 44.0092H43.2202C43.5991 44.0092 43.9624 44.1595 44.2303 44.4272C44.4981 44.6949 44.6486 45.0579 44.6486 45.4365C44.6486 45.815 44.4981 46.178 44.2303 46.4457C43.9624 46.7134 43.5991 46.8638 43.2202 46.8638H37.9146C37.5358 46.8638 37.1725 46.7134 36.9046 46.4457C36.6367 46.178 36.4862 45.815 36.4862 45.4365C36.4862 45.0579 36.6367 44.6949 36.9046 44.4272C37.1725 44.1595 37.5358 44.0092 37.9146 44.0092ZM23.2223 44.0092H28.936C29.3148 44.0092 29.6781 44.1595 29.946 44.4272C30.2139 44.6949 30.3644 45.0579 30.3644 45.4365C30.3644 45.815 30.2139 46.178 29.946 46.4457C29.6781 46.7134 29.3148 46.8638 28.936 46.8638H23.2223C22.8434 46.8638 22.4801 46.7134 22.2122 46.4457C21.9444 46.178 21.7939 45.815 21.7939 45.4365C21.7939 45.0579 21.9444 44.6949 22.2122 44.4272C22.4801 44.1595 22.8434 44.0092 23.2223 44.0092ZM7.50963 30.1441C7.50963 29.4951 7.76762 28.8728 8.22685 28.4139C8.68607 27.9551 9.30892 27.6973 9.95836 27.6973H12.8152C13.4646 27.6973 14.0875 27.9551 14.5467 28.4139C15.0059 28.8728 15.2639 29.4951 15.2639 30.1441V32.9986C15.2639 33.6476 15.0059 34.2699 14.5467 34.7288C14.0875 35.1876 13.4646 35.4454 12.8152 35.4454H9.95836C9.30892 35.4454 8.68607 35.1876 8.22685 34.7288C7.76762 34.2699 7.50963 33.6476 7.50963 32.9986V30.1441ZM8.93805 44.0092H14.2436C14.6225 44.0092 14.9858 44.1595 15.2537 44.4272C15.5216 44.6949 15.672 45.0579 15.672 45.4365C15.672 45.815 15.5216 46.178 15.2537 46.4457C14.9858 46.7134 14.6225 46.8638 14.2436 46.8638H8.93805C8.55921 46.8638 8.19589 46.7134 7.92801 46.4457C7.66012 46.178 7.50963 45.815 7.50963 45.4365C7.50963 45.0579 7.66012 44.6949 7.92801 44.4272C8.19589 44.1595 8.55921 44.0092 8.93805 44.0092Z" fill="#7496EE"/>
</svg>
