<svg width="56" height="56" viewBox="0 0 56 56" fill="none" xmlns="http://www.w3.org/2000/svg">
<path fill-rule="evenodd" clip-rule="evenodd" d="M42.8203 30.3506C49.6159 30.3506 55.125 35.8597 55.125 42.6553C55.125 49.4508 49.6159 54.9599 42.8203 54.9599C36.0247 54.9599 30.5156 49.4508 30.5156 42.6553C30.5156 35.8597 36.0247 30.3506 42.8203 30.3506ZM41.9453 36.9771V42.6551C41.9453 43.0012 42.1462 43.3004 42.4378 43.4423L46.4919 45.7829C46.9091 46.0246 47.4432 45.8823 47.6848 45.4651C47.9264 45.0479 47.7841 44.5139 47.3669 44.2723L43.6953 42.1524V36.9771C43.6953 36.4938 43.3035 36.1021 42.8203 36.1021C42.3371 36.1021 41.9453 36.4938 41.9453 36.9771ZM42.8203 33.0981C37.5422 33.0981 33.2631 37.377 33.2631 42.6553C33.2631 47.9335 37.5421 52.2124 42.8203 52.2124C48.0985 52.2124 52.3775 47.9335 52.3775 42.6553C52.3775 37.377 48.0985 33.0981 42.8203 33.0981ZM42.8203 34.848C38.5081 34.848 35.0131 38.3429 35.0131 42.6551C35.0131 46.9674 38.5081 50.4623 42.8203 50.4623C47.1325 50.4623 50.6275 46.9674 50.6275 42.6551C50.6275 38.3429 47.1325 34.848 42.8203 34.848ZM25.4597 1.34126C24.7641 0.939633 23.9679 0.939633 23.2723 1.34126L1.96875 13.6409C1.27312 14.0424 0.875 14.732 0.875 15.5353V40.1344C0.875 40.9376 1.27312 41.6271 1.96875 42.0288L23.2723 54.3283C23.9678 54.7299 24.764 54.7299 25.4597 54.3283L31.4264 50.8834C29.7528 48.5704 28.7656 45.7281 28.7656 42.6551C28.7656 34.8937 35.0588 28.6005 42.8203 28.6005C44.5954 28.6005 46.2932 28.9306 47.8569 29.5311V15.5353C47.8569 14.732 47.4588 14.0425 46.7632 13.6409L39.5176 9.45765L16.0267 23.0201L16.0266 32.7543C16.0266 32.9551 15.9271 33.1275 15.7532 33.2279C15.5793 33.3282 15.3802 33.3282 15.2063 33.2279L9.76106 30.0841C9.41325 29.8833 9.21419 29.5386 9.21419 29.1369V19.087L32.7051 5.52452L25.4597 1.34126Z" fill="#7F9C09"/>
</svg>
