<svg width="56" height="56" viewBox="0 0 56 56" fill="none" xmlns="http://www.w3.org/2000/svg">
<path fill-rule="evenodd" clip-rule="evenodd" d="M4.98262 3.39062C5.85822 3.39062 6.57461 4.10701 6.57461 4.98262V52.6093H3.39062V4.98262C3.39062 4.10701 4.10701 3.39062 4.98262 3.39062Z" fill="#BD8D46"/>
<path fill-rule="evenodd" clip-rule="evenodd" d="M6.30127 47.0889V44.0008H49.6992V47.0889H6.30127Z" fill="#BD8D46"/>
<path fill-rule="evenodd" clip-rule="evenodd" d="M51.0175 3.39062C51.8931 3.39062 52.6095 4.10701 52.6095 4.98262V52.6093H49.4255V4.98262C49.4255 4.10701 50.1419 3.39062 51.0175 3.39062Z" fill="#BD8D46"/>
<path fill-rule="evenodd" clip-rule="evenodd" d="M6.30127 21.8572H49.6992V24.9453H6.30127V21.8572Z" fill="#BD8D46"/>
<path fill-rule="evenodd" clip-rule="evenodd" d="M24.3631 42.907H10.8901V33.3477H15.7858V36.836L17.2436 35.3966L18.7014 36.836V33.3477H24.3631V42.907Z" fill="#BD8D46"/>
<path fill-rule="evenodd" clip-rule="evenodd" d="M9.55835 28.6115H25.6945V32.2538H9.55835V28.6115Z" fill="#BD8D46"/>
<path fill-rule="evenodd" clip-rule="evenodd" d="M31.6372 42.907H45.1102V33.3477H40.2145V36.836L38.7567 35.3966L37.2989 36.836V33.3477H31.6372V42.907Z" fill="#BD8D46"/>
<path fill-rule="evenodd" clip-rule="evenodd" d="M30.3054 28.6115H46.4417V32.2538H30.3054V28.6115Z" fill="#BD8D46"/>
<path fill-rule="evenodd" clip-rule="evenodd" d="M24.3631 20.7634H10.8901V11.204H15.7858V14.6925L17.2436 13.2529L18.7014 14.6925V11.204H24.3631V20.7634Z" fill="#BD8D46"/>
<path fill-rule="evenodd" clip-rule="evenodd" d="M9.55835 6.46796H25.6945V10.1103H9.55835V6.46796Z" fill="#BD8D46"/>
<path fill-rule="evenodd" clip-rule="evenodd" d="M31.6372 20.7634H45.1102V11.204H40.2145V14.6925L38.7567 13.2529L37.2989 14.6925V11.204H31.6372V20.7634Z" fill="#BD8D46"/>
<path fill-rule="evenodd" clip-rule="evenodd" d="M46.4416 6.46796H30.3054V10.1103H46.4416V6.46796Z" fill="#BD8D46"/>
</svg>
